<?xml version="1.0" encoding="iso-8859-1"?>
<svg version="1.1" id="Capa_1"
    xmlns="http://www.w3.org/2000/svg"
    xmlns:xlink="http://www.w3.org/1999/xlink" x="0px" y="90px" viewBox="0 0 30 60"  filled="none" style="enable-background:new 0 0 34 60;" xml:space="preserve">

    <g id="Page-1" fill="none" fill-rule="evenodd">
        <g id="006---Merging-Lanes-Arrow" fill="rgb(0,0,0)" fill-rule="nonzero" transform="translate(0 -1)">
            <path id="Shape" d="m2 61h10c1.1040441-.0012675 1.9987325-.8959559 2-2v-3.9771c-.006383-3.5444307 1.0379309-7.0112325 3.001-9.9624 1.9614503 2.9432887 3.0051897 6.4025243 2.999 9.9395v4c.0012675 1.1040441.8959559 1.9987325 2 2h10c1.1040441-.0012675 1.9987325-.8959559 2-2v-4c.0173941-6.6612932-2.0657016-13.158532-5.9531-18.5679l-.7031-.9941c-2.1825982-3.0420976-3.3524598-6.6939357-3.3438-10.438v-3h5c.7506395.0027508 1.4386836-.4179764 1.7783-1.0874.3393668-.6564687.2813988-1.4478866-.15-2.0479l-11.9789-17.0419c-.3768376-.51750366-.9780318-.82408225-1.6182-.8252h-.0012c-.64479.0019795-1.2496546.3125535-1.627.8354l-12.0221 17.0205c-.43613798.6059323-.49565386 1.4052562-.15406034 2.0690967.34159353.6638404 1.02659272 1.0800579 1.77316034 1.0774033h5v3.0034c.0067105 3.7428662-1.16299325 7.3931969-3.3438 10.4351l-.7.98c-3.88451163 5.4187125-5.9680502 11.9210865-5.9562 18.5883v3.9932c.00126747 1.1040441.89595593 1.9987325 2 2zm0-5.9932c-.01107396-6.2499813 1.94189524-12.3454629 5.583-17.4253l.7-.98c2.4241159-3.3808277 3.7243787-7.4380184 3.717-11.5981v-4.0034c0-.5522847-.4477153-1-1-1l-5.9932.0171 12.0147-17.0317 11.9785 17.0146h-6c-.5522847 0-1 .4477153-1 1v4c-.0096807 4.1598339 1.2896258 8.2172849 3.7139 11.5977l.7041.9951c3.6447868 5.0710846 5.5980341 11.162193 5.582 17.4072l.0000979 4h-10.0000979v-4c.0070461-4.1525911-1.287676-8.2029472-3.7021-11.5815l-.4834-.6788c-.1877156-.2633655-.4912119-.4196857-.8146289-.4195865-.3234169.0000993-.6268172.1566058-.8143711.4200865l-.47.66c-2.4230921 3.3905455-3.7225009 7.4553117-3.7155 11.6227v3.9771h-10.00004684z"/>
        </g>
    </g>
</svg>